<svg width="290" height="98" viewBox="0 0 290 98" fill="none" xmlns="http://www.w3.org/2000/svg">
<path d="M44.195 21.5881H38.9159L36.2364 41.9318L36.1165 43.2088L35.9965 41.9318L33.4769 21.5881H27.758L25.1585 41.9318L25.0385 43.1648L24.9185 41.9318L22.319 21.5881H17L21.7991 52.4119H27.638L30.4775 32.2003L30.5975 31.1875L30.6775 32.2003L33.5169 52.4119H39.3958L44.195 21.5881Z" fill="white"/>
<path d="M56.862 52.4119H62.101L56.1021 21.5881H50.0632L44.0644 52.4119H49.3034L50.0632 48.2287H56.1421L56.862 52.4119ZM50.9031 43.3849L52.9827 31.6278L53.1027 30.527L53.2227 31.6278L55.2623 43.3849H50.9031Z" fill="white"/>
<path d="M112.867 52.4119H118.106L112.107 21.5881H106.068L100.07 52.4119H105.309L106.068 48.2287H112.147L112.867 52.4119ZM106.908 43.3849L108.988 31.6278L109.108 30.527L109.228 31.6278L111.268 43.3849H106.908Z" fill="white"/>
<path d="M138.337 43.2088V47.1719C138.337 47.2599 138.257 47.348 138.177 47.348H133.497C133.377 47.348 133.337 47.2599 133.337 47.1719V43.0327H128.338V47.8324C128.338 50.6065 130.018 52.5 132.538 52.5H139.096C141.616 52.5 143.336 50.6065 143.336 47.8324V43.6932C143.336 41.7997 142.696 40.3026 141.576 39.0696L133.497 30.2628C133.377 30.1307 133.337 30.0426 133.337 29.8665V26.8281C133.337 26.696 133.377 26.652 133.497 26.652H138.177C138.257 26.652 138.337 26.696 138.337 26.8281V30.9233H143.336V26.1236C143.336 23.3935 141.616 21.5 139.096 21.5H132.538C130.018 21.5 128.338 23.3935 128.338 26.1236V29.3821C128.338 31.2756 128.938 32.7727 130.098 34.0057L138.177 42.8125C138.257 42.9446 138.337 43.0327 138.337 43.2088Z" fill="white"/>
<path d="M161.887 52.4119V21.5881H156.968V38.0128L156.848 37.3523L152.209 21.5881H146.89V52.4119H151.809V33.9616L151.929 34.5781L157.368 52.4119H161.887Z" fill="white"/>
<path d="M178.438 52.4119V47.348H170.44V38.8054H176.439V33.9616H170.44V26.652H178.438V21.5881H165.441V52.4119H178.438Z" fill="white"/>
<path d="M192.657 52.4119H197.896L191.897 21.5881H185.858L179.859 52.4119H185.098L185.858 48.2287H191.937L192.657 52.4119ZM186.698 43.3849L188.778 31.6278L188.898 30.527L189.018 31.6278L191.057 43.3849H186.698Z" fill="white"/>
<path d="M217.119 52.4119L210.52 35.1065L216.639 21.5881H211.4L205.121 35.8111V21.5881H200.122V52.4119H205.121V45.6747L207.281 40.919L211.52 52.4119H217.119Z" fill="white"/>
<path d="M231.671 52.4119V47.348H223.672V38.8054H229.671V33.9616H223.672V26.652H231.671V21.5881H218.673V52.4119H231.671Z" fill="white"/>
<path d="M249.849 52.4119L246.489 40.2145C248.329 39.6861 249.449 38.0128 249.449 35.767V26.2116C249.449 23.4815 247.729 21.5881 245.21 21.5881H234.452V52.4119H239.451V40.3906H241.77L244.61 52.4119H249.849ZM239.451 26.652H244.29C244.37 26.652 244.45 26.696 244.45 26.8281V35.1506C244.45 35.2827 244.37 35.3267 244.29 35.3267H239.451V26.652Z" fill="white"/>
<path d="M263.001 43.2088V47.1719C263.001 47.2599 262.921 47.348 262.841 47.348H258.162C258.042 47.348 258.002 47.2599 258.002 47.1719V43.0327H253.003V47.8324C253.003 50.6065 254.682 52.5 257.202 52.5H263.761C266.28 52.5 268 50.6065 268 47.8324V43.6932C268 41.7997 267.36 40.3026 266.24 39.0696L258.162 30.2628C258.042 30.1307 258.002 30.0426 258.002 29.8665V26.8281C258.002 26.696 258.042 26.652 258.162 26.652H262.841C262.921 26.652 263.001 26.696 263.001 26.8281V30.9233H268V26.1236C268 23.3935 266.28 21.5 263.761 21.5H257.202C254.682 21.5 253.003 23.3935 253.003 26.1236V29.3821C253.003 31.2756 253.603 32.7727 254.762 34.0057L262.841 42.8125C262.921 42.9446 263.001 43.0327 263.001 43.2088Z" fill="white"/>
<path d="M79.3239 52.4098V21.5859H74.4048V38.0107L74.2848 37.3501L69.6457 21.5859H64.3267V52.4098H69.2458V33.9595L69.3657 34.576L74.8047 52.4098H79.3239Z" fill="#C71F24"/>
<path d="M97.8751 52.4098V21.5859H92.956V38.0107L92.8361 37.3501L88.1969 21.5859H82.8779V52.4098H87.797V33.9595L87.917 34.576L93.356 52.4098H97.8751Z" fill="#C71F24"/>
<path d="M68.6015 67.1619V65.5284H64V75.4716H65.7698V71.0824H67.8935V69.5199H65.7698V67.1619H68.6015Z" fill="white"/>
<path d="M87.8784 73.9801V72.446H86.1086V73.7812C86.1086 73.8097 86.0803 73.8381 86.0519 73.8381H84.3954C84.3529 73.8381 84.3388 73.8097 84.3388 73.7812V67.2187C84.3388 67.1761 84.3529 67.1619 84.3954 67.1619H86.0519C86.0803 67.1619 86.1086 67.1761 86.1086 67.2187V68.5398H87.8784V66.9915C87.8784 66.125 87.2554 65.5 86.3776 65.5H84.0556C83.192 65.5 82.569 66.125 82.569 66.9915V73.9801C82.569 74.8608 83.192 75.4858 84.0556 75.4858H86.3776C87.2554 75.4858 87.8784 74.8608 87.8784 73.9801Z" fill="white"/>
<path d="M95.1539 75.4716L92.8178 69.8892L94.984 65.5284H93.1292L90.9064 70.1165V65.5284H89.1366V75.4716H90.9064V73.2983L91.6709 71.7642L93.1717 75.4716H95.1539Z" fill="white"/>
<path d="M102.078 72.5028V73.7812C102.078 73.8097 102.05 73.8381 102.022 73.8381H100.365C100.323 73.8381 100.308 73.8097 100.308 73.7812V72.446H98.5386V73.9943C98.5386 74.8892 99.1333 75.5 100.025 75.5H102.347C103.239 75.5 103.848 74.8892 103.848 73.9943V72.6591C103.848 72.0483 103.621 71.5653 103.225 71.1676L100.365 68.3267C100.323 68.2841 100.308 68.2557 100.308 68.1989V67.2187C100.308 67.1761 100.323 67.1619 100.365 67.1619H102.022C102.05 67.1619 102.078 67.1761 102.078 67.2187V68.5398H103.848V66.9915C103.848 66.1108 103.239 65.5 102.347 65.5H100.025C99.1333 65.5 98.5386 66.1108 98.5386 66.9915V68.0426C98.5386 68.6534 98.751 69.1364 99.1616 69.5341L102.022 72.375C102.05 72.4176 102.078 72.446 102.078 72.5028Z" fill="white"/>
<path d="M110.416 75.4716V65.5284H108.646V69.4915H106.876V65.5284H105.106V75.4716H106.876V71.125H108.646V75.4716H110.416Z" fill="white"/>
<path d="M116.983 73.9943V66.9915C116.983 66.1108 116.374 65.5 115.482 65.5H113.16C112.283 65.5 111.674 66.1108 111.674 66.9915V73.9943C111.674 74.8892 112.283 75.5 113.16 75.5H115.482C116.374 75.5 116.983 74.8892 116.983 73.9943ZM115.213 67.2187V73.7812C115.213 73.8097 115.185 73.8381 115.157 73.8381H113.5C113.458 73.8381 113.444 73.8097 113.444 73.7812V67.2187C113.444 67.1761 113.458 67.1619 113.5 67.1619H115.157C115.185 67.1619 115.213 67.1761 115.213 67.2187Z" fill="white"/>
<path d="M122.843 75.4716V73.8381H120.011V71.0824H122.135V69.5199H120.011V67.1619H122.843V65.5284H118.241V75.4716H122.843Z" fill="white"/>
<path d="M127.367 72.5028V73.7812C127.367 73.8097 127.339 73.8381 127.31 73.8381H125.654C125.611 73.8381 125.597 73.8097 125.597 73.7812V72.446H123.827V73.9943C123.827 74.8892 124.422 75.5 125.314 75.5H127.636C128.528 75.5 129.137 74.8892 129.137 73.9943V72.6591C129.137 72.0483 128.91 71.5653 128.514 71.1676L125.654 68.3267C125.611 68.2841 125.597 68.2557 125.597 68.1989V67.2187C125.597 67.1761 125.611 67.1619 125.654 67.1619H127.31C127.339 67.1619 127.367 67.1761 127.367 67.2187V68.5398H129.137V66.9915C129.137 66.1108 128.528 65.5 127.636 65.5H125.314C124.422 65.5 123.827 66.1108 123.827 66.9915V68.0426C123.827 68.6534 124.04 69.1364 124.45 69.5341L127.31 72.375C127.339 72.4176 127.367 72.446 127.367 72.5028Z" fill="white"/>
<path d="M136.174 72.858V71.3949H132.875V72.858H136.174Z" fill="white"/>
<path d="M149.082 65.5284H147.213L146.264 72.0909L146.222 72.5028L146.179 72.0909L145.287 65.5284H143.263L142.342 72.0909L142.3 72.4886L142.257 72.0909L141.337 65.5284H139.454L141.153 75.4716H143.22L144.225 68.9517L144.268 68.625L144.296 68.9517L145.302 75.4716H147.383L149.082 65.5284Z" fill="white"/>
<path d="M154.478 75.4716V73.8381H151.646V71.0824H153.77V69.5199H151.646V67.1619H154.478V65.5284H149.876V75.4716H154.478Z" fill="white"/>
<path d="M159.512 75.4716H161.366L159.243 65.5284H157.105L154.981 75.4716H156.836L157.105 74.1222H159.257L159.512 75.4716ZM157.402 72.5597L158.138 68.767L158.181 68.4119L158.223 68.767L158.945 72.5597H157.402Z" fill="white"/>
<path d="M167.605 75.4716L166.416 71.5369C167.067 71.3665 167.464 70.8267 167.464 70.1023V67.0199C167.464 66.1392 166.855 65.5284 165.963 65.5284H162.154V75.4716H163.924V71.5938H164.745L165.751 75.4716H167.605ZM163.924 67.1619H165.637C165.666 67.1619 165.694 67.1761 165.694 67.2187V69.9034C165.694 69.946 165.666 69.9602 165.637 69.9602H163.924V67.1619Z" fill="white"/>
<path d="M175.096 72.5028V73.7812C175.096 73.8097 175.068 73.8381 175.039 73.8381H173.383C173.34 73.8381 173.326 73.8097 173.326 73.7812V72.446H171.556V73.9943C171.556 74.8892 172.151 75.5 173.043 75.5H175.365C176.257 75.5 176.866 74.8892 176.866 73.9943V72.6591C176.866 72.0483 176.639 71.5653 176.243 71.1676L173.383 68.3267C173.34 68.2841 173.326 68.2557 173.326 68.1989V67.2187C173.326 67.1761 173.34 67.1619 173.383 67.1619H175.039C175.068 67.1619 175.096 67.1761 175.096 67.2187V68.5398H176.866V66.9915C176.866 66.1108 176.257 65.5 175.365 65.5H173.043C172.151 65.5 171.556 66.1108 171.556 66.9915V68.0426C171.556 68.6534 171.769 69.1364 172.179 69.5341L175.039 72.375C175.068 72.4176 175.096 72.446 175.096 72.5028Z" fill="white"/>
<path d="M183.433 75.4716V65.5284H181.692V70.8267L181.649 70.6136L180.007 65.5284H178.124V75.4716H179.865V69.5199L179.908 69.7188L181.833 75.4716H183.433Z" fill="white"/>
<path d="M189.293 75.4716V73.8381H186.461V71.0824H188.585V69.5199H186.461V67.1619H189.293V65.5284H184.692V75.4716H189.293Z" fill="white"/>
<path d="M194.327 75.4716H196.182L194.058 65.5284H191.92L189.796 75.4716H191.651L191.92 74.1222H194.072L194.327 75.4716ZM192.217 72.5597L192.953 68.767L192.996 68.4119L193.038 68.767L193.76 72.5597H192.217Z" fill="white"/>
<path d="M202.987 75.4716L200.651 69.8892L202.817 65.5284H200.962L198.739 70.1165V65.5284H196.97V75.4716H198.739V73.2983L199.504 71.7642L201.005 75.4716H202.987Z" fill="white"/>
<path d="M208.139 75.4716V73.8381H205.307V71.0824H207.431V69.5199H205.307V67.1619H208.139V65.5284H203.537V75.4716H208.139Z" fill="white"/>
<path d="M214.574 75.4716L213.385 71.5369C214.036 71.3665 214.432 70.8267 214.432 70.1023V67.0199C214.432 66.1392 213.824 65.5284 212.932 65.5284H209.123V75.4716H210.893V71.5938H211.714L212.719 75.4716H214.574ZM210.893 67.1619H212.606C212.634 67.1619 212.663 67.1761 212.663 67.2187V69.9034C212.663 69.946 212.634 69.9602 212.606 69.9602H210.893V67.1619Z" fill="white"/>
<path d="M219.23 72.5028V73.7812C219.23 73.8097 219.202 73.8381 219.174 73.8381H217.517C217.475 73.8381 217.46 73.8097 217.46 73.7812V72.446H215.691V73.9943C215.691 74.8892 216.285 75.5 217.177 75.5H219.499C220.391 75.5 221 74.8892 221 73.9943V72.6591C221 72.0483 220.773 71.5653 220.377 71.1676L217.517 68.3267C217.475 68.2841 217.46 68.2557 217.46 68.1989V67.2187C217.46 67.1761 217.475 67.1619 217.517 67.1619H219.174C219.202 67.1619 219.23 67.1761 219.23 67.2187V68.5398H221V66.9915C221 66.1108 220.391 65.5 219.499 65.5H217.177C216.285 65.5 215.691 66.1108 215.691 66.9915V68.0426C215.691 68.6534 215.903 69.1364 216.314 69.5341L219.174 72.375C219.202 72.4176 219.23 72.446 219.23 72.5028Z" fill="white"/>
<path d="M75.9184 72.1207L78.5374 74.2931L80 71.6724L76.8027 70.5L80 69.2931L78.5374 66.6724L75.9184 68.8793L76.4966 65.5H73.5034L74.0816 68.9138L71.4626 66.6724L70 69.2931L73.1633 70.5L70 71.6724L71.4626 74.2931L74.0816 72.0862L73.5034 75.5H76.4966L75.9184 72.1207Z" fill="#C71F24"/>
<rect x="2" y="2.5" width="286" height="93" stroke="white" stroke-width="4"/>
</svg>
