<svg width="55" height="36" viewBox="0 0 55 36" fill="none" xmlns="http://www.w3.org/2000/svg">
<g clip-path="url(#clip0_2158_2177)">
<path d="M50.6418 35.9676C48.1164 35.9676 46.6187 34.6937 46.5041 32.8593H48.9186C48.9186 33.4708 49.2624 34.2848 50.7565 34.3354C51.7919 34.3354 52.3648 33.724 52.3648 33.2643C52.2502 32.5515 51.3294 32.5009 50.4125 32.3451C49.3771 32.1972 48.5748 31.9907 47.9979 31.7375C47.1956 31.3285 46.7332 30.4599 46.7332 29.5446C46.7332 27.9124 48.1164 26.6386 50.5272 26.6386C52.8272 26.6386 54.3211 27.8113 54.4316 29.5952H52.1357C52.1357 29.1393 52.021 28.3721 50.6416 28.3721C49.7209 28.3721 49.148 28.524 49.0333 29.1861C49.0333 30.1055 50.9856 30.0547 52.4795 30.4092C53.8587 30.7676 54.7794 31.6323 54.7794 32.8593C54.7794 35.1029 52.9417 35.9676 50.6418 35.9676ZM6.6405 20.9149L14.5682 16.377L18.8205 23.5676H8.13436" fill="#111111"/>
<path fill-rule="evenodd" clip-rule="evenodd" d="M24.4703 26.623V35.6987H22.1505V26.623H24.4703Z" fill="#111111"/>
<path d="M2.96095 31.2935C2.96095 32.719 4.22548 33.8916 5.60071 33.8916C7.09852 33.8916 8.24461 32.719 8.24461 31.2935C8.24461 29.9186 7.09852 28.6955 5.60071 28.6955C4.22548 28.6955 2.96095 29.9186 2.96095 31.2935ZM5.48623 35.9833C2.96077 35.9833 0.779297 33.8916 0.779297 31.2935C0.779297 28.6955 2.96095 26.6545 5.48623 26.6545C6.52161 26.6545 7.44233 26.9116 8.24461 27.4685V26.7556H10.5447V35.7768H8.24479V35.216C7.55718 35.7262 6.52179 35.9833 5.48641 35.9833H5.48623ZM36.1706 23.5656L25.1407 4.60408L33.0683 0.015625L46.8568 23.5656H36.1706ZM13.5324 31.2935C13.5324 32.719 14.6826 33.8916 16.1763 33.8916C17.5515 33.8916 18.8202 32.719 18.8202 31.2935C18.8202 29.9186 17.5515 28.6955 16.1763 28.6955C14.6825 28.6955 13.5324 29.9186 13.5324 31.2935ZM16.0617 35.9833C13.4178 35.9833 11.3509 33.8916 11.3509 31.2935C11.3509 28.6955 13.4178 26.6545 16.0617 26.6545C17.0931 26.6545 18.014 26.9116 18.8202 27.4685V23.6473H21.1164V35.7768H18.82V35.216C18.0138 35.7262 17.0931 35.9833 16.0615 35.9833H16.0617ZM15.9484 12.8105L23.9907 8.32729L32.8393 23.565H24.4493V25.8086H22.153V23.565L15.9484 12.8105ZM53.2894 25.8792C52.7125 25.8792 52.1395 25.369 52.1395 24.7574C52.1395 24.1459 52.7125 23.6356 53.2894 23.6356C53.977 23.6356 54.4396 24.1461 54.4396 24.7574C54.4396 25.3688 53.977 25.8794 53.2894 25.8794V25.8792ZM53.2894 23.7916C52.7125 23.7916 52.3687 24.2472 52.3687 24.7574C52.3687 25.2677 52.7125 25.7273 53.2894 25.7273C53.8625 25.7273 54.2063 25.2678 54.2063 24.7574C54.2063 24.247 53.8625 23.7916 53.2894 23.7916Z" fill="#111111"/>
<path d="M53.527 25.374L53.2977 24.8637H53.0685V25.374H52.8946V24.1509H53.4123C53.527 24.1509 53.7561 24.3068 53.7561 24.5093C53.7561 24.7117 53.6415 24.8132 53.527 24.8637L53.7561 25.374H53.527ZM53.2977 24.3068H53.0685V24.7119H53.2977C53.527 24.7119 53.527 24.6613 53.527 24.5093C53.527 24.4042 53.527 24.3068 53.2977 24.3068ZM38.1141 31.2946C38.1141 32.7202 39.2643 33.8927 40.758 33.8927C42.1372 33.8927 43.398 32.7202 43.398 31.2946C43.398 29.9197 42.1372 28.6966 40.758 28.6966C39.2642 28.6966 38.1141 29.9197 38.1141 31.2946ZM40.6396 35.9844C37.9996 35.9844 35.9326 33.8927 35.9326 31.2946C35.9326 28.6966 37.9996 26.6556 40.6394 26.6556C41.675 26.6556 42.5957 26.9127 43.398 27.4696V26.7567H45.5834V35.7779H43.3981V35.2171C42.5957 35.7274 41.675 35.9844 40.6394 35.9844H40.6396ZM27.5505 31.2946C27.5505 32.7202 28.8151 33.8927 30.1943 33.8927C31.6883 33.8927 32.8382 32.7202 32.8382 31.2946C32.8382 29.9197 31.6881 28.6966 30.1943 28.6966C28.8151 28.6966 27.5505 29.9197 27.5505 31.2946ZM32.8382 23.6484H35.1343V35.7779H32.8382V35.2171C32.1466 35.7274 31.2259 35.9844 30.1943 35.9844C27.5505 35.9844 25.3689 33.8927 25.3689 31.2946C25.3689 28.6966 27.5505 26.6556 30.1943 26.6556C31.2257 26.6556 32.1466 26.9127 32.8382 27.4696V23.6484Z" fill="#111111"/>
</g>
<defs>
<clipPath id="clip0_2158_2177">
<rect width="54" height="36" fill="white" transform="translate(0.779297)"/>
</clipPath>
</defs>
</svg>
