<svg width="77" height="25" viewBox="0 0 77 25" fill="none" xmlns="http://www.w3.org/2000/svg">
<path d="M8.44791 17.7305C7.04061 17.7305 6.36482 16.634 6.71664 15.3649C7.44652 12.7358 12.1344 8.83922 15.3287 8.83922C17.661 8.83922 17.4818 10.9508 16.1165 12.7529L15.3615 13.5987C12.6534 16.292 10.1426 17.7305 8.44791 17.7305ZM19.867 0C15.7898 0.00166047 11.2986 2.52889 8.48015 4.92273L8.7025 5.24929C13.0779 2.14145 19.1513 0.119554 20.8258 3.15157C21.7097 4.7517 20.2084 7.98131 18.0953 10.5351C18.6023 9.4071 18.2679 7.24241 15.3216 7.24241C10.4217 7.24185 0.779297 13.8173 0.779297 20.545C0.779297 23.241 2.6242 25 5.66335 25C13.8007 25 24.8373 11.486 24.8373 4.69857C24.8368 2.30141 23.4754 0 19.867 0ZM30.3426 17.7305C29.87 17.7305 29.4756 17.5617 29.2292 17.2578C28.9719 16.9368 28.8954 16.4835 29.0177 16.0135C29.2871 14.9946 30.3704 14.197 31.4833 14.197H34.1012L33.167 17.731L30.3426 17.7305ZM37.8708 7.13448C37.1207 6.20129 35.9095 5.78452 35.0409 5.78452H30.2814L29.4734 8.83701H33.9613L34.3908 8.88295C34.3957 8.88295 34.8043 8.9311 35.0299 9.24161C35.2146 9.50009 35.2408 9.88587 35.1092 10.3901L34.8966 11.1927H32.0695C29.6351 11.1927 26.2425 12.9611 25.4869 15.8187C25.1105 17.244 25.4399 18.4782 26.1709 19.3854C26.8964 20.2854 28.2638 20.7808 29.7422 20.7808H32.3606L32.3596 20.7819H35.6888L37.2496 14.875L38.3991 10.5329C38.8503 8.8276 38.3614 7.74276 37.8708 7.13448ZM70.5601 5.78452C69.2729 5.78452 68.0776 6.1703 67.1035 6.90146C66.1212 7.6387 65.5793 8.52539 65.2564 9.74639C64.5566 12.3932 66.6086 13.6706 68.2601 14.5756C69.4428 15.2259 70.465 15.7861 70.2448 16.6163C70.0875 17.2124 69.8313 17.7332 68.3753 17.7332H63.9316L63.1247 20.7863H68.0426C69.3614 20.7863 70.5792 20.5073 71.5598 19.7446C72.5426 18.9797 73.096 17.9126 73.4402 16.6113C73.7691 15.3721 73.5457 14.1892 72.7601 13.3053C72.105 12.5653 71.1605 12.05 70.3295 11.595C69.2647 11.0139 68.2606 10.4659 68.4365 9.80119C68.5425 9.40046 68.938 8.83922 69.7974 8.83922H74.1188L74.9267 5.78673H70.559V5.78452H70.5601ZM44.7702 5.78452C43.4831 5.78452 42.2872 6.1703 41.3136 6.90146C40.3314 7.6387 39.79 8.52539 39.4649 9.74639C38.7651 12.3932 40.8192 13.6706 42.4691 14.5756C43.6524 15.2259 44.6751 15.7861 44.455 16.6163C44.2971 17.2124 44.0409 17.7332 42.5844 17.7332H38.1423L37.3343 20.7863H42.2528C43.5727 20.7863 44.7904 20.5073 45.7699 19.7446C46.7533 18.9797 47.3067 17.9126 47.6504 16.6113C47.9792 15.3721 47.7552 14.1892 46.9713 13.3053C46.3168 12.5653 45.3711 12.05 44.5385 11.595C43.4749 11.0139 42.4707 10.4659 42.6472 9.80119C42.7526 9.40046 43.1487 8.83922 44.0064 8.83922H48.3267L49.1352 5.78673H44.7696V5.78452H44.7702ZM51.4817 5.78452L47.6241 20.7835H50.8829L54.7382 5.78452H51.4817ZM63.4099 5.78452C57.6725 5.80555 54.6705 9.67721 53.7161 13.2837C52.5858 17.5606 54.8327 20.7841 58.9421 20.7841H61.6966L62.5036 17.731H59.7507C58.2123 17.731 56.0969 16.5039 56.9497 13.2837C57.6266 10.7233 60.0888 8.83701 62.7936 8.83701H64.5413L65.3493 5.78452H63.4099ZM74.6989 20.0977H74.9836V19.4491H75.2103C75.3627 19.4491 75.4692 19.4657 75.5277 19.5011C75.6304 19.5625 75.6828 19.6893 75.6828 19.8797V20.0108L75.6878 20.0634C75.6899 20.0712 75.6905 20.0767 75.6927 20.0828L75.6965 20.0977H75.9647L75.9549 20.0778C75.9457 20.0502 75.9409 20.0212 75.9407 19.992C75.9377 19.9511 75.9362 19.9102 75.9363 19.8692V19.7485C75.9333 19.6564 75.9026 19.5674 75.8484 19.4933C75.7894 19.4059 75.6954 19.3522 75.5676 19.3312C75.6675 19.3157 75.7468 19.2908 75.8036 19.2509C75.9101 19.1812 75.9626 19.0743 75.962 18.926C75.9626 18.7196 75.879 18.5806 75.7113 18.5092C75.6167 18.4705 75.4692 18.4517 75.2671 18.4517H74.6989V20.0977ZM75.5151 19.2105C75.4561 19.2343 75.3649 19.247 75.2436 19.247H74.9841V18.6509H75.2278C75.3867 18.6509 75.5026 18.6703 75.5747 18.7113C75.6473 18.7522 75.6834 18.8325 75.6834 18.9526C75.6834 19.0793 75.6271 19.1651 75.5151 19.2105ZM76.3455 18.2209C76.2085 18.0797 76.0447 17.9682 75.8639 17.8932C75.6832 17.8181 75.4892 17.781 75.2939 17.7842C74.888 17.7842 74.5389 17.9303 74.2504 18.2209C74.1109 18.3579 74.0006 18.5225 73.9262 18.7044C73.8519 18.8863 73.8152 19.0817 73.8183 19.2786C73.8183 19.6959 73.9614 20.0513 74.2477 20.3435C74.535 20.6368 74.8847 20.7841 75.295 20.7841C75.7052 20.7841 76.0554 20.6368 76.3444 20.3435C76.634 20.0496 76.7793 19.6948 76.7793 19.2786C76.7793 18.8651 76.6345 18.512 76.3455 18.2209ZM76.1969 18.3664C76.446 18.6183 76.5701 18.9227 76.5701 19.278C76.5701 19.6378 76.446 19.9439 76.1969 20.1974C75.9505 20.4509 75.6495 20.5782 75.2961 20.5782C74.9426 20.5782 74.6427 20.4514 74.3935 20.1974C74.2739 20.0773 74.1795 19.934 74.1161 19.776C74.0526 19.618 74.0214 19.4486 74.0242 19.278C74.0242 18.9216 74.1488 18.6183 74.3952 18.3664C74.5115 18.2441 74.6514 18.1472 74.8062 18.0818C74.9609 18.0164 75.1273 17.9839 75.295 17.9862C75.463 17.9836 75.6297 18.0161 75.7849 18.0815C75.94 18.1469 76.0803 18.2439 76.1969 18.3664Z" fill="#111111"/>
</svg>
