<svg width="58" height="38" viewBox="0 0 58 38" fill="none" xmlns="http://www.w3.org/2000/svg">
<path d="M22.1642 21.2639L22.1408 15.5255L27.6757 13.4873L22.1017 11.6753L21.9849 6.02148L18.6036 10.5832L13.0725 8.89052L16.2832 13.6791L13.1492 18.4764L18.6083 16.6805L22.1642 21.2639Z" fill="#111111"/>
<path d="M22.8561 27.2957H32.7699L45.195 13.6562L32.71 0H22.8917L34.5686 13.6361L22.8561 27.2957Z" fill="#111111"/>
<path d="M0.779297 34.6367C0.779297 32.8643 2.28895 31.1211 4.35218 31.1211C5.75757 31.1211 7.33471 32.6939 7.33471 32.6939L5.62602 33.6808C5.62602 33.6808 5.34375 32.9406 4.29011 32.9406C3.21896 32.9406 2.58871 33.8136 2.5813 34.6059C2.57303 35.4916 3.30457 36.2712 4.22792 36.2712C4.95245 36.2712 5.71921 35.5002 5.71921 35.5002L7.17944 36.5488C7.17944 36.5488 6.08675 37.8749 4.25904 37.8749C2.42757 37.8749 0.779297 36.7787 0.779297 34.6367Z" fill="#111111"/>
<path fill-rule="evenodd" clip-rule="evenodd" d="M11.4329 31.2109C9.51119 31.2109 7.95605 32.7346 7.95605 34.6082C7.95605 36.4817 9.51119 37.9994 11.4329 37.9994C13.3547 37.9994 14.9159 36.4817 14.9159 34.6082C14.9159 32.7346 13.3547 31.211 11.4329 31.211V31.2109ZM11.4329 32.9096C12.3939 32.9096 13.1744 33.6714 13.1744 34.6082C13.1744 35.5449 12.3939 36.3008 11.4329 36.3008C10.4721 36.3008 9.69752 35.5449 9.69752 34.6082C9.69752 33.6714 10.4721 32.9096 11.4329 32.9096ZM16.222 31.307V37.6573H17.8969V34.2252L20.6603 37.6573H22.311V31.307H20.6301V35.0181L17.8969 31.307H16.222ZM23.6776 31.307L25.9391 37.6573H28.4304L30.6919 31.307H28.8597L27.1847 36.3488L25.5098 31.307H23.6776ZM31.8951 31.307V37.6573H37.0409V36.1927H33.5701V35.1304H36.6903V33.8339H33.5701V32.8195H37.0409V31.307L31.8951 31.307ZM52.6335 31.307V37.6573H57.7793V36.1927H54.3085V35.1304H57.4287V33.8339H54.3085V32.8195H57.7793V31.307L52.6335 31.307ZM38.9336 31.4271V37.6873H40.421V35.2204H41.2737L42.5798 37.6873H44.4966L43.2026 35.0103C44.885 34.009 44.5519 31.9133 42.6765 31.4271H38.9336ZM40.3908 32.9396H42.1081C42.7048 32.9396 42.666 33.8579 42.1081 33.8579H40.3908V32.9396Z" fill="#111111"/>
<path d="M45.3905 36.8106C45.4565 37.2031 47.0155 37.9446 48.554 37.9446C49.9669 37.9446 51.1024 37.2712 51.1024 35.9346C51.1024 34.2908 49.1692 33.9103 49.1692 33.9103C49.1692 33.9103 47.5629 33.8879 47.5215 33.1471C47.502 32.7985 47.9912 32.6019 48.4222 32.6019C49.1279 32.6019 49.9161 33.2998 49.9161 33.2998L51.0365 32.1004C51.0365 32.1004 49.6189 30.9883 48.4222 30.9883C47.2795 30.9883 45.6542 31.7311 45.6542 33.2779C45.6542 34.594 47.5356 35.1994 47.5356 35.1994C47.5356 35.1994 49.5207 35.4093 49.5207 36.0256C49.5207 36.445 48.8008 36.5708 48.3783 36.5708C47.3526 36.5708 46.489 35.6767 46.489 35.6767L45.3905 36.8106Z" fill="#111111"/>
</svg>
