<svg width="61" height="21" viewBox="0 0 61 21" fill="none" xmlns="http://www.w3.org/2000/svg">
<path fill-rule="evenodd" clip-rule="evenodd" d="M8.46499 0.931216C4.56065 5.39017 0.81714 10.9197 0.779602 15.0528C0.764982 16.6079 1.2755 17.9655 2.50002 18.9938C4.26233 20.4747 6.20402 20.9969 8.13623 21C10.9599 21.0038 13.7638 19.896 15.9591 19.0418C19.6564 17.6039 60.5265 0.344066 60.5265 0.344066C60.9208 0.151936 60.8469 -0.0874569 60.3534 0.0320481C60.1542 0.0804649 15.8599 11.7539 15.8599 11.7539C15.0209 11.9847 14.154 12.1054 13.2821 12.1128C9.87799 12.1324 6.84888 10.2949 6.87338 6.42268C6.88286 4.90754 7.35979 3.08038 8.46499 0.931216Z" fill="#111111"/>
</svg>
