<svg width="62" height="31" viewBox="0 0 62 31" fill="none" xmlns="http://www.w3.org/2000/svg">
<path d="M33.6558 0.105133C33.4562 0.136528 33.2644 0.886004 32.8787 1.27644C32.5966 1.55822 32.2445 1.54059 32.0575 1.88896C31.9865 2.0191 32.0095 2.24126 31.9289 2.45456C31.7716 2.88117 31.2171 2.91931 31.2171 3.38412C31.2152 3.88609 31.6795 3.98196 32.0815 4.33812C32.3952 4.62482 32.4259 4.82246 32.8057 4.96139C33.1301 5.07397 33.6126 4.70601 34.0472 4.83812C34.4041 4.94678 34.7456 5.02502 34.8262 5.39881C34.8972 5.74324 34.8214 6.27745 34.3887 6.21585C34.2429 6.19921 33.6107 5.98197 32.8336 6.06611C31.8963 6.17476 30.8266 6.48682 30.722 7.55249C30.6645 8.14837 31.3868 8.85093 32.0843 8.70807C32.5669 8.61114 32.3386 8.031 32.6014 7.74915C32.9458 7.38814 34.8972 9.00945 36.7113 9.00945C37.475 9.00945 38.0429 8.81279 38.6071 8.21003C38.6598 8.16403 38.7241 8.06521 38.8056 8.05931C38.8824 8.06521 39.0167 8.14247 39.0608 8.17576C40.522 9.3734 41.6262 11.7756 46.9958 11.804C47.7508 11.8079 48.6113 12.1758 49.3135 12.8295C49.94 13.4205 50.3065 14.3392 50.6624 15.2717C51.1997 16.671 52.1629 18.0321 53.623 19.5468C53.7027 19.628 54.9047 20.5811 55.0007 20.6525C55.016 20.6623 55.1043 20.8775 55.0737 20.9978C55.0381 21.9059 54.9086 24.5468 56.8388 24.6662C57.3109 24.6907 57.187 24.3521 57.187 24.1192C57.1861 23.6593 57.1036 23.2024 57.3416 22.7317C57.6667 22.084 56.6518 21.7855 56.6815 20.3853C56.7026 19.3413 55.843 19.5193 55.4065 18.7238C55.1551 18.263 54.9316 18.0184 54.9479 17.4547C55.0458 14.2825 54.2859 12.1983 53.907 11.6866C53.6116 11.3001 53.3669 11.1465 53.6374 10.9674C55.2482 9.88225 55.6137 8.87242 55.6137 8.87242C56.4704 6.81861 57.2408 4.94277 58.3028 4.11702C58.5168 3.9467 59.0655 3.52894 59.4023 3.36452C60.3933 2.88798 60.9152 2.59939 61.203 2.3136C61.6587 1.86058 62.0184 0.916346 61.5819 0.343931C61.0389 -0.362562 60.0997 0.198124 59.6853 0.448581C56.7237 2.24126 56.2872 5.40366 55.2616 7.21979C54.4433 8.67084 53.1127 9.73645 51.9231 9.82354C51.0308 9.89103 50.0696 9.70709 49.1121 9.27852C46.7837 8.23742 45.5097 6.89299 45.2094 6.65524C44.5839 6.16304 39.7276 1.30088 35.7932 1.10226C35.7932 1.10226 35.305 0.105203 35.1821 0.0885572C34.8943 0.0513327 34.5998 0.68443 34.3887 0.757896C34.1902 0.825321 33.8563 0.0719115 33.6558 0.105203V0.105133ZM16.3354 29.1242C15.9651 29.1154 15.6504 28.8052 15.6504 28.4217L15.6514 15.9048H11.6067V29.7025C11.6067 30.3786 12.1439 30.9305 12.803 30.9305H19.8726C20.5364 30.9305 21.067 30.3786 21.067 29.7025V15.9048H17.0262L17.0223 28.4217C17.0223 28.8052 16.7076 29.1154 16.3354 29.1242ZM29.8778 15.9048H23.7561C23.0318 15.9048 22.4418 16.5056 22.4418 17.2522V30.9305H26.4902V18.3834C26.4931 17.9989 26.7981 17.6946 27.1743 17.6946C27.5522 17.6946 27.8554 17.992 27.864 18.3727V30.9305H31.8962V18.3725C31.901 17.9919 32.2042 17.6945 32.5812 17.6945C32.9554 17.6945 33.2643 17.9988 33.2672 18.3834V30.9305H37.3157V17.2522C37.3157 16.5056 36.7247 15.9048 36.0004 15.9048H29.8778ZM6.19393 18.4098C6.19683 17.9919 5.86298 17.6945 5.50896 17.6945H4.82206V25.2944H5.50896C5.86587 25.2944 6.1969 25.0047 6.19393 24.589V18.4098ZM8.908 27.1545H4.82206V30.9305H0.779297V15.9048H8.93396C9.66397 15.9048 10.2338 16.5096 10.2338 17.2581V25.8013C10.2338 26.5508 9.64194 27.1545 8.908 27.1545ZM51.1891 27.5704C50.3766 27.5704 49.6944 28.2866 49.6944 29.1546C49.6944 30.0254 50.3766 30.7358 51.215 30.7358C52.0468 30.7358 52.7203 30.0254 52.7203 29.1546C52.7203 28.2846 52.0468 27.5704 51.215 27.5704H51.1891ZM53.01 29.1497C53.01 30.1702 52.208 31 51.215 31C50.2115 31 49.4057 30.1761 49.4057 29.1497C49.4057 28.1428 50.2115 27.3013 51.1853 27.3013C52.208 27.3013 53.01 28.1174 53.01 29.1497Z" fill="#111111"/>
<path d="M51.0278 29.0317C51.3089 29.0317 51.4566 28.9299 51.4566 28.7265C51.4566 28.5454 51.3137 28.4525 51.0402 28.4525H50.9597V29.0317H51.0278ZM52.063 30.2196H51.5804L50.9597 29.3771V30.2196H50.5654V28.0894H50.9798C51.543 28.0894 51.8423 28.3067 51.8423 28.7215C51.8423 28.9984 51.6658 29.2441 51.4192 29.3174L51.3904 29.3282L52.063 30.2196ZM44.1031 25.2968V18.378C44.0935 17.9953 43.7913 17.7018 43.4143 17.7018C43.0411 17.7018 42.7321 18.0071 42.7293 18.3887V25.2968H44.1031ZM44.1031 30.93V27.1579H42.7293V30.93H38.6885V17.2517C38.6885 16.5051 39.2784 15.9043 40.0028 15.9043H46.8296C47.5559 15.9043 48.1459 16.5051 48.1459 17.2517V30.9299L44.1031 30.93Z" fill="#111111"/>
</svg>
