<svg width="137" height="12" viewBox="0 0 137 12" fill="none" xmlns="http://www.w3.org/2000/svg">
<path d="M7.52057 2.768H4.91657V11H2.97057V2.768H0.366571V1.032H7.52057V2.768ZM16.3615 4.77C16.3708 5.03133 16.3755 5.44667 16.3755 6.016C16.3755 6.58533 16.3708 7.00067 16.3615 7.262C16.3521 7.52333 16.3195 7.85 16.2635 8.242C16.2075 8.62467 16.1048 8.95133 15.9555 9.222C15.8155 9.49267 15.6241 9.74933 15.3815 9.992C14.6535 10.72 13.7575 11.084 12.6935 11.084C11.6201 11.084 10.7195 10.72 9.99147 9.992C9.7488 9.74933 9.55747 9.49733 9.41747 9.236C9.27747 8.96533 9.17947 8.62933 9.12347 8.228C9.06747 7.82667 9.0348 7.50467 9.02547 7.262C9.01613 7.01933 9.01147 6.604 9.01147 6.016C9.01147 5.428 9.01613 5.01267 9.02547 4.77C9.0348 4.52733 9.06747 4.20533 9.12347 3.804C9.17947 3.40267 9.27747 3.07133 9.41747 2.81C9.55747 2.53933 9.7488 2.28267 9.99147 2.04C10.7195 1.312 11.6201 0.947999 12.6935 0.947999C13.7575 0.947999 14.6535 1.312 15.3815 2.04C15.6241 2.28267 15.8155 2.53933 15.9555 2.81C16.1048 3.08067 16.2075 3.412 16.2635 3.804C16.3195 4.18667 16.3521 4.50867 16.3615 4.77ZM14.3315 7.962C14.3968 7.598 14.4295 6.94933 14.4295 6.016C14.4295 5.08267 14.3968 4.43867 14.3315 4.084C14.2661 3.72 14.1355 3.43067 13.9395 3.216C13.6315 2.86133 13.2161 2.684 12.6935 2.684C12.1615 2.684 11.7415 2.86133 11.4335 3.216C11.2375 3.43067 11.1068 3.71533 11.0415 4.07C10.9855 4.42467 10.9575 5.07333 10.9575 6.016C10.9575 6.95867 10.9855 7.60733 11.0415 7.962C11.1068 8.31667 11.2375 8.60133 11.4335 8.816C11.7415 9.17067 12.1615 9.348 12.6935 9.348C13.2161 9.348 13.6315 9.17067 13.9395 8.816C14.1355 8.60133 14.2661 8.31667 14.3315 7.962ZM26.1095 5.498C26.1095 5.75933 26.1095 5.918 26.1095 5.974C26.1095 6.03 26.1095 6.19333 26.1095 6.464C26.1095 6.72533 26.1095 6.89333 26.1095 6.968C26.1095 7.04267 26.1049 7.20133 26.0955 7.444C26.0862 7.67733 26.0722 7.84067 26.0535 7.934C26.0349 8.02733 26.0115 8.172 25.9835 8.368C25.9555 8.564 25.9135 8.72267 25.8575 8.844C25.8109 8.956 25.7502 9.09133 25.6755 9.25C25.6102 9.40867 25.5262 9.55333 25.4235 9.684C25.3302 9.80533 25.2229 9.92667 25.1015 10.048C24.4669 10.6827 23.5895 11 22.4695 11H18.8715V1.032H22.4695C23.5895 1.032 24.4669 1.34933 25.1015 1.984C25.2229 2.10533 25.3302 2.23133 25.4235 2.362C25.5262 2.48333 25.6102 2.62333 25.6755 2.782C25.7502 2.93133 25.8109 3.062 25.8575 3.174C25.9135 3.286 25.9555 3.44 25.9835 3.636C26.0115 3.82267 26.0349 3.96267 26.0535 4.056C26.0722 4.14 26.0862 4.29867 26.0955 4.532C26.1049 4.76533 26.1095 4.91933 26.1095 4.994C26.1095 5.05933 26.1095 5.22733 26.1095 5.498ZM24.1635 5.974C24.1635 5.18067 24.1355 4.60667 24.0795 4.252C24.0329 3.888 23.9209 3.59867 23.7435 3.384C23.4075 2.97333 22.9222 2.768 22.2875 2.768H20.8175V9.264H22.2875C22.9222 9.264 23.4075 9.05867 23.7435 8.648C23.9209 8.43333 24.0329 8.13933 24.0795 7.766C24.1355 7.38333 24.1635 6.786 24.1635 5.974ZM36.1776 11H34.1476L33.5596 9.236H30.0176L29.4156 11H27.3856L31.0116 1.032H32.5376L36.1776 11ZM33.0416 7.598L31.8236 3.972L30.5636 7.598H33.0416ZM44.3596 8.06C44.3596 9.00267 44.0096 9.74467 43.3096 10.286C42.619 10.818 41.737 11.084 40.6636 11.084C39.8703 11.084 39.1843 10.986 38.6056 10.79C38.027 10.5847 37.4996 10.244 37.0236 9.768L38.2836 8.508C38.8436 9.068 39.6463 9.348 40.6916 9.348C41.8676 9.348 42.4556 8.93733 42.4556 8.116C42.4556 7.752 42.353 7.472 42.1476 7.276C41.961 7.108 41.667 6.99133 41.2656 6.926L40.0616 6.758C39.2123 6.63667 38.5683 6.36133 38.1296 5.932C37.6536 5.456 37.4156 4.80267 37.4156 3.972C37.4156 3.06667 37.7283 2.33867 38.3536 1.788C38.979 1.228 39.8236 0.947999 40.8876 0.947999C42.2316 0.947999 43.305 1.33533 44.1076 2.11L42.8756 3.328C42.3996 2.87067 41.7183 2.642 40.8316 2.642C40.337 2.642 39.9543 2.76333 39.6836 3.006C39.4223 3.23933 39.2916 3.538 39.2916 3.902C39.2916 4.19133 39.3896 4.42933 39.5856 4.616C39.8096 4.82133 40.1176 4.952 40.5096 5.008L41.6856 5.176C42.5256 5.29733 43.1603 5.554 43.5896 5.946C44.103 6.43133 44.3596 7.136 44.3596 8.06ZM56.9416 11H50.4736V1.032H52.4196V9.264H56.9416V11ZM66.7406 11H64.7106L64.1226 9.236H60.5806L59.9786 11H57.9486L61.5746 1.032H63.1006L66.7406 11ZM63.6046 7.598L62.3866 3.972L61.1266 7.598H63.6046ZM74.9226 8.06C74.9226 9.00267 74.5726 9.74467 73.8726 10.286C73.182 10.818 72.3 11.084 71.2266 11.084C70.4333 11.084 69.7473 10.986 69.1686 10.79C68.59 10.5847 68.0626 10.244 67.5866 9.768L68.8466 8.508C69.4066 9.068 70.2093 9.348 71.2546 9.348C72.4306 9.348 73.0186 8.93733 73.0186 8.116C73.0186 7.752 72.916 7.472 72.7106 7.276C72.524 7.108 72.23 6.99133 71.8286 6.926L70.6246 6.758C69.7753 6.63667 69.1313 6.36133 68.6926 5.932C68.2166 5.456 67.9786 4.80267 67.9786 3.972C67.9786 3.06667 68.2913 2.33867 68.9166 1.788C69.542 1.228 70.3866 0.947999 71.4506 0.947999C72.7946 0.947999 73.868 1.33533 74.6706 2.11L73.4386 3.328C72.9626 2.87067 72.2813 2.642 71.3946 2.642C70.9 2.642 70.5173 2.76333 70.2466 3.006C69.9853 3.23933 69.8546 3.538 69.8546 3.902C69.8546 4.19133 69.9526 4.42933 70.1486 4.616C70.3726 4.82133 70.6806 4.952 71.0726 5.008L72.2486 5.176C73.0886 5.29733 73.7233 5.554 74.1526 5.946C74.666 6.43133 74.9226 7.136 74.9226 8.06ZM90.0666 11H88.1206V5.19L86.2166 8.97H84.9006L82.9826 5.19V11H81.0366V1.032H82.9546L85.5586 6.422L88.1486 1.032H90.0666V11ZM100.599 11H98.5685L97.9805 9.236H94.4385L93.8365 11H91.8065L95.4325 1.032H96.9585L100.599 11ZM97.4625 7.598L96.2445 3.972L94.9845 7.598H97.4625ZM109.887 11H107.633L105.687 7.024H104.287V11H102.341V1.032H106.247C107.236 1.032 108.02 1.326 108.599 1.914C109.187 2.502 109.481 3.22533 109.481 4.084C109.481 4.74667 109.308 5.302 108.963 5.75C108.617 6.198 108.183 6.51533 107.661 6.702L109.887 11ZM107.143 5.036C107.404 4.79333 107.535 4.476 107.535 4.084C107.535 3.692 107.404 3.37467 107.143 3.132C106.881 2.88933 106.541 2.768 106.121 2.768H104.287V5.4H106.121C106.541 5.4 106.881 5.27867 107.143 5.036ZM119.015 7.934C118.847 8.93267 118.436 9.70733 117.783 10.258C117.13 10.8087 116.318 11.084 115.347 11.084C114.283 11.084 113.387 10.72 112.659 9.992C112.23 9.56267 111.959 9.06333 111.847 8.494C111.735 7.934 111.679 7.108 111.679 6.016C111.679 4.924 111.735 4.098 111.847 3.538C111.959 2.96867 112.23 2.46933 112.659 2.04C113.387 1.312 114.283 0.947999 115.347 0.947999C116.318 0.947999 117.13 1.22333 117.783 1.774C118.436 2.32467 118.847 3.09933 119.015 4.098H117.041C116.808 3.15533 116.248 2.684 115.361 2.684C114.82 2.684 114.404 2.85667 114.115 3.202C113.91 3.41667 113.774 3.70133 113.709 4.056C113.653 4.40133 113.625 5.05467 113.625 6.016C113.625 6.97733 113.653 7.63533 113.709 7.99C113.774 8.33533 113.91 8.61533 114.115 8.83C114.404 9.17533 114.82 9.348 115.361 9.348C116.248 9.348 116.808 8.87667 117.041 7.934H119.015ZM128.761 11H126.731L126.143 9.236H122.601L121.999 11H119.969L123.595 1.032H125.121L128.761 11ZM125.625 7.598L124.407 3.972L123.147 7.598H125.625ZM136.943 8.06C136.943 9.00267 136.593 9.74467 135.893 10.286C135.202 10.818 134.32 11.084 133.247 11.084C132.453 11.084 131.767 10.986 131.189 10.79C130.61 10.5847 130.083 10.244 129.607 9.768L130.867 8.508C131.427 9.068 132.229 9.348 133.275 9.348C134.451 9.348 135.039 8.93733 135.039 8.116C135.039 7.752 134.936 7.472 134.731 7.276C134.544 7.108 134.25 6.99133 133.849 6.926L132.645 6.758C131.795 6.63667 131.151 6.36133 130.713 5.932C130.237 5.456 129.999 4.80267 129.999 3.972C129.999 3.06667 130.311 2.33867 130.937 1.788C131.562 1.228 132.407 0.947999 133.471 0.947999C134.815 0.947999 135.888 1.33533 136.691 2.11L135.459 3.328C134.983 2.87067 134.301 2.642 133.415 2.642C132.92 2.642 132.537 2.76333 132.267 3.006C132.005 3.23933 131.875 3.538 131.875 3.902C131.875 4.19133 131.973 4.42933 132.169 4.616C132.393 4.82133 132.701 4.952 133.093 5.008L134.269 5.176C135.109 5.29733 135.743 5.554 136.173 5.946C136.686 6.43133 136.943 7.136 136.943 8.06Z" fill="black"/>
</svg>
