<svg width="66" height="24" viewBox="0 0 66 24" fill="none" xmlns="http://www.w3.org/2000/svg">
<path d="M1.88375 0.0407462C1.84235 0.0570447 1.58567 0.0896417 1.3207 0.122239C1.00606 0.154836 0.823892 0.220029 0.790772 0.301522C0.741091 0.42376 0.857013 1.0268 1.05574 1.71134C1.1137 1.91507 1.17994 2.1677 1.20478 2.28179C1.29586 2.72185 1.51943 3.62641 2.04936 5.66372C2.35572 6.82907 2.62897 7.91292 2.66209 8.06775C2.70349 8.22259 2.77801 8.51596 2.82769 8.71969C2.88565 8.92342 2.9933 9.30644 3.05954 9.57536C3.29966 10.4962 3.4073 10.8792 3.50667 11.246C3.56463 11.4497 3.63915 11.7431 3.67227 11.8979C3.70539 12.0527 3.78819 12.3868 3.85443 12.6313C3.92067 12.8758 4.1194 13.5929 4.285 14.2204C4.4506 14.8479 4.62449 15.4917 4.65761 15.6465C4.69073 15.8014 4.80665 16.2251 4.90601 16.5837C5.00538 16.9423 5.1213 17.366 5.15442 17.5209C5.18754 17.6757 5.26206 17.9691 5.31174 18.1728C5.3697 18.3765 5.46907 18.7433 5.52703 18.9877C5.67607 19.5826 5.85823 20.2998 6.01556 20.9028C6.0818 21.1717 6.1646 21.4977 6.18944 21.6281C6.25568 21.9378 6.71109 22.8994 6.87669 23.0787C6.99262 23.2172 7.25758 23.2253 10.2716 23.2253C13.4346 23.2253 13.5505 23.2172 13.8155 23.0542C13.9894 22.9564 14.097 22.8179 14.097 22.7201C14.097 22.6304 14.155 22.386 14.2212 22.1741C14.2874 21.9704 14.3951 21.5629 14.4696 21.2695C14.5441 20.9762 14.6435 20.6094 14.6932 20.4546C14.7429 20.2998 14.8174 20.039 14.8422 19.8842C14.8753 19.7293 14.9913 19.3056 15.0906 18.947C15.19 18.5884 15.3059 18.1647 15.339 18.0098C15.3721 17.855 15.4881 17.4312 15.5874 17.0727C15.6868 16.7141 15.8027 16.2903 15.8358 16.1355C15.869 15.9807 15.9849 15.5569 16.0842 15.1983C16.1836 14.8398 16.2995 14.416 16.3326 14.2612C16.3658 14.1063 16.4817 13.6826 16.581 13.324C16.6804 12.9654 16.7963 12.5417 16.8295 12.3868C16.8626 12.232 16.9785 11.8083 17.0779 11.4497C17.1772 11.0911 17.2931 10.6674 17.3263 10.5125C17.3594 10.3577 17.4753 9.93393 17.5747 9.57536C17.674 9.21679 17.79 8.79303 17.8231 8.6382C17.8562 8.48336 17.9721 8.0596 18.0715 7.70103C18.1708 7.34247 18.2868 6.91871 18.3199 6.76387C18.5931 5.50074 18.9989 4.53913 19.3466 4.31095C19.4957 4.21316 22.8574 4.19686 40.6267 4.18056C57.0048 4.16426 61.7494 4.13982 61.8487 4.06647C62.122 3.83829 62.1799 3.53677 62.2379 2.06991L62.2876 0.594895L62.0888 0.383014C61.9729 0.260776 61.7908 0.130388 61.6748 0.0814924C61.5506 0.0407462 52.5004 0.00814924 38.4655 0C16.1256 0 15.4549 -6.20111e-08 15.1734 0.146686C14.7925 0.350417 14.776 0.415611 13.9811 3.56122C13.9148 3.82199 13.7989 4.2702 13.7244 4.56358C13.6499 4.85695 13.5339 5.30516 13.4677 5.55778C13.1779 6.71498 12.9212 7.71733 12.7308 8.43447C12.5155 9.24939 12.3582 9.86873 12.2422 10.3251C11.9856 11.36 11.8696 11.792 11.7703 12.1424C11.7206 12.3461 11.6461 12.6395 11.6129 12.7943C11.5053 13.2751 10.9423 15.4428 10.7684 16.0296C10.669 16.3555 10.3958 16.7059 10.2384 16.7059C10.0894 16.7059 9.99004 16.4615 9.78303 15.6058C9.69195 15.2472 9.56775 14.7501 9.50151 14.5057C9.43527 14.2612 9.32762 13.7804 9.2531 13.4463C9.17858 13.1121 9.06266 12.6313 9.0047 12.3868C8.94674 12.1424 8.83081 11.6453 8.75629 11.2867C8.67349 10.9281 8.56585 10.4147 8.49961 10.1458C8.44164 9.87688 8.334 9.37978 8.25948 9.04566C7.57223 5.88375 7.10026 3.96053 6.52893 1.99656C6.0404 0.301522 6.0404 0.309671 5.73403 0.171134C5.51047 0.0733431 5.06334 0.0407462 3.70539 0.0244477C2.74489 0.0162984 1.93343 0.0162985 1.88375 0.0407462ZM63.8277 4.3517C63.6952 4.40874 63.4716 4.57173 63.3226 4.71841C62.8672 5.15847 62.8423 6.08748 63.2729 6.54384C63.5544 6.84536 64.0347 7.08984 64.3576 7.08984C64.7385 7.08984 65.2353 6.80462 65.5168 6.4216C65.9308 5.85931 65.848 5.06883 65.3181 4.62062C64.8875 4.26205 64.2914 4.15611 63.8277 4.3517ZM65.0283 4.76731C65.285 4.95474 65.5168 5.40295 65.5168 5.68817C65.5168 5.9082 65.2436 6.4379 65.1277 6.4379C65.0863 6.4379 64.9538 6.52754 64.8213 6.64163C64.5149 6.90241 64.3493 6.89426 63.8939 6.63348C63.3888 6.34011 63.2812 6.16083 63.2812 5.62298C63.2812 5.21552 63.306 5.14217 63.5544 4.91399C63.6952 4.77546 63.8939 4.64507 63.985 4.62062C64.2831 4.53913 64.8296 4.62062 65.0283 4.76731Z" fill="#111111"/>
<path d="M63.7444 5.1413C63.6616 5.55691 63.6865 6.2333 63.7941 6.33924C63.9266 6.46963 64.1916 6.31479 64.1916 6.11106C64.1916 5.86658 64.4896 5.89918 64.5559 6.1518C64.5973 6.30664 64.6635 6.35554 64.8208 6.35554C65.0196 6.35554 65.0361 6.33109 64.9865 6.08661C64.9202 5.75249 64.9202 5.71175 64.9865 5.43467C65.0775 5.06795 64.8457 4.88867 64.2744 4.88867C63.8107 4.88867 63.7941 4.89682 63.7444 5.1413ZM64.5228 5.38578C64.5228 5.48357 64.4648 5.54061 64.3572 5.54061C64.175 5.54061 64.117 5.25539 64.2992 5.19019C64.4482 5.1413 64.5228 5.20649 64.5228 5.38578ZM54.7522 6.31479C52.8891 6.55927 51.2662 7.26825 50.463 8.19726C49.221 9.63153 49.014 11.8237 49.9579 13.6002C50.463 14.5455 51.7796 15.6457 52.7235 15.8983C52.8643 15.9309 53.2369 16.0368 53.5515 16.1346C53.8827 16.2324 54.5783 16.3384 55.1662 16.3791C56.2426 16.4524 57.1865 16.6317 57.5674 16.8273C57.9566 17.031 58.2878 17.4793 58.4037 17.9601C58.4948 18.3594 58.4865 18.449 58.354 18.7424C58.1967 19.0847 57.8324 19.4188 57.319 19.6877C57.0789 19.8099 56.847 19.8425 56.0356 19.8344C54.8764 19.8344 54.5286 19.7366 52.7732 18.9298C52.1273 18.6364 51.5974 18.4327 51.2993 18.3594C51.0675 18.3023 50.6286 18.7587 49.9579 19.7284C49.279 20.7227 48.9974 21.3175 49.1134 21.562C49.2376 21.8391 51.1669 22.98 51.5146 22.98C51.556 22.98 51.6968 23.0289 51.8293 23.0941C52.3509 23.3549 53.3445 23.7053 53.9655 23.8438C54.9592 24.0638 57.2776 24.0475 58.1884 23.8112C59.7699 23.4038 60.7967 22.8496 61.7903 21.8472C62.5686 21.0649 62.933 20.307 63.1069 19.0358C63.2476 18.0578 63.0158 16.5991 62.5935 15.8657C62.461 15.6294 62.0387 15.0671 61.8731 14.9041C61.6744 14.7085 60.954 14.2359 60.6311 14.0892C60.0101 13.8039 59.7617 13.7225 58.1884 13.3231C56.9878 13.0135 56.6566 12.9238 56.2178 12.7853C55.5802 12.5734 54.8515 12.2067 54.57 11.9541C54.3796 11.7748 54.3382 11.6688 54.3382 11.351C54.3382 10.7806 54.7604 10.2183 55.4146 9.91675C55.7044 9.78637 55.9528 9.74562 56.5324 9.74562C57.4184 9.74562 57.8655 9.88416 59.3725 10.6013C60.0183 10.911 60.4489 11.0739 60.5483 11.0414C60.7884 10.968 61.6909 10.0308 61.9973 9.52559C62.2871 9.06108 62.4279 8.53953 62.3368 8.20541C62.2871 7.98538 61.7241 7.60237 60.8546 7.21121C59.7534 6.7141 58.9254 6.47777 57.6502 6.30664C56.6235 6.17625 55.8286 6.17625 54.7522 6.31479ZM22.1366 7.09712C21.3748 7.17046 21.1761 7.2764 21.0933 7.69201C21.0602 7.83055 20.9277 8.27061 20.7952 8.67807C20.6627 9.07738 20.4971 9.61523 20.4226 9.85971C20.3481 10.1042 20.2404 10.4546 20.1825 10.6339C20.1245 10.8132 20.0169 11.1799 19.9341 11.4488C19.8513 11.7177 19.7436 12.0845 19.6857 12.2637C19.6277 12.443 19.5118 12.8097 19.4373 13.0787C19.3544 13.3476 19.2468 13.7143 19.1888 13.8936C19.1309 14.0729 19.0232 14.4559 18.9404 14.7493C18.8576 15.0426 18.75 15.4256 18.692 15.6049C18.6341 15.7842 18.5182 16.1672 18.4436 16.4606C18.3691 16.754 18.2532 17.137 18.1952 17.3163C18.1373 17.4956 18.0296 17.8786 17.9468 18.1719C17.864 18.4653 17.7564 18.8646 17.6984 19.0684C17.6405 19.2721 17.5328 19.6633 17.4583 19.9403C17.3838 20.2255 17.2678 20.6819 17.1933 20.959C17.1188 21.2442 17.0029 21.6435 16.9366 21.8554C16.8704 22.0591 16.8124 22.3932 16.8042 22.5807L16.7876 22.9311L17.4086 23.0452C18.2201 23.1919 20.2404 23.2 20.671 23.0533C20.9774 22.9474 21.0022 22.9066 21.1595 22.3688C21.6977 20.5108 21.6563 20.5923 22.0455 20.3396C22.592 19.9729 23.2544 19.8751 24.778 19.9322C25.4818 19.9566 26.2021 20.0137 26.3678 20.0544C26.8314 20.1685 27.1295 20.5189 27.3365 21.2035C27.4359 21.5294 27.5932 22.0428 27.6843 22.3444C27.8251 22.8007 27.8913 22.9066 28.0569 22.9474C28.355 23.0207 31.6505 23.0289 31.9072 22.9637C32.0314 22.9311 32.1473 22.8496 32.1721 22.7763C32.2053 22.7111 32.0728 22.0836 31.8823 21.3746C31.7002 20.6656 31.518 19.9403 31.4849 19.761C31.4187 19.4432 31.253 18.775 30.6238 16.3139C30.5492 16.0368 30.4416 15.5968 30.3754 15.336C30.3091 15.0834 30.1932 14.6433 30.1269 14.3581C30.0524 14.081 29.9448 13.641 29.8785 13.3802C29.3817 11.4325 29.3072 11.1473 28.7442 9.4115C28.1397 7.55347 28.0238 7.2764 27.8499 7.21121C27.4193 7.04007 23.5111 6.96673 22.1366 7.09712ZM24.3805 12.443C24.4882 12.5734 24.5627 12.7527 24.8773 13.5269C25.0843 14.0484 25.2251 14.5048 25.3245 14.9937C25.4155 15.4745 25.4155 15.5397 25.2831 15.6701C25.1174 15.8413 24.3225 15.9716 23.8506 15.9064C23.685 15.8902 23.478 15.8005 23.4035 15.719C23.2792 15.5805 23.2792 15.5316 23.4035 15.0426C23.478 14.7493 23.5359 14.407 23.5359 14.2847C23.5442 13.8121 24.0327 12.3045 24.1901 12.3045C24.2232 12.3045 24.3143 12.3697 24.3805 12.443ZM44.2364 7.08897C43.9383 7.12156 43.5988 7.19491 43.4746 7.25195C43.2593 7.34974 43.2427 7.39864 43.2427 7.855C43.2427 8.13207 43.2013 9.11813 43.1517 10.0634C43.1103 11.0006 43.0606 12.1904 43.0357 12.6956C43.0192 13.2009 42.9778 13.6491 42.9529 13.6899C42.8453 13.861 42.5141 13.7713 42.3899 13.5432C42.3319 13.4209 42.0835 12.9727 41.8351 12.549C41.595 12.1252 41.2886 11.5792 41.1561 11.3347C41.0154 11.0984 40.8001 10.7154 40.6676 10.4954C40.5351 10.2753 40.4275 10.0879 40.4275 10.0716C40.4275 10.0553 40.1459 9.55819 39.8065 8.96329C39.467 8.3684 39.1854 7.855 39.1854 7.8224C39.1854 7.79795 39.0447 7.61867 38.8708 7.43124L38.5479 7.08897H36.8173C35.1613 7.08897 33.9772 7.20306 33.8033 7.39049C33.6129 7.57792 33.5301 9.74562 33.497 15.8087C33.4556 22.1406 33.4639 22.214 33.6295 22.597L33.8033 22.9881L35.625 22.9637C37.3555 22.9392 37.4549 22.9311 37.6205 22.7681C37.7944 22.597 37.7944 22.5073 37.8606 19.4025C37.9269 16.1265 37.9434 15.9716 38.2664 15.9716C38.4154 15.9716 39.4587 17.6422 40.2287 19.1091C41.9096 22.3199 42.1911 22.8007 42.481 22.8741C42.6052 22.9066 43.7478 22.9392 45.0312 22.9392C46.7701 22.9392 47.3911 22.9148 47.4822 22.8415C47.5733 22.76 47.6147 22.4584 47.6643 21.5294C47.7306 19.9974 47.714 8.81661 47.6478 7.94464L47.5898 7.2927L47.1758 7.20306C46.621 7.08082 44.8988 7.01562 44.2364 7.08897Z" fill="#111111"/>
</svg>
